<svg width="79" height="79" viewBox="0 0 79 79" fill="none" xmlns="http://www.w3.org/2000/svg">
<path d="M7.07708 17.0034L5.58267 17.0127C5.08892 17.0283 4.58529 17.0533 4.09483 17.1377C3.35361 17.2489 2.6508 17.5255 2.0442 17.9447C1.43761 18.364 0.944579 18.914 0.605667 19.5494C0.37525 19.9805 0.230417 20.4179 0.144833 20.8927C0.0526667 21.355 0.0230417 21.8299 0.0131667 22.2985L0 22.9514V59.0551C0 59.2717 0.00329167 59.4872 0.009875 59.7018C0.0230417 60.1703 0.0526667 60.6483 0.141542 61.1138C0.227125 61.5803 0.382931 62.027 0.608958 62.454C1.06361 63.3016 1.78962 63.9906 2.68271 64.4221C3.13696 64.6407 3.59779 64.7813 4.09813 64.8657C4.58529 64.95 5.08563 64.9781 5.57938 64.9906L6.26404 65H72.736L73.4173 64.9906C73.9111 64.9781 74.4147 64.95 74.9052 64.8657C75.3956 64.7813 75.863 64.6439 76.314 64.4252C77.2102 63.9952 77.938 63.3045 78.391 62.454C78.6215 62.0229 78.7696 61.5855 78.8552 61.1107C78.944 60.6483 78.9737 60.1735 78.9868 59.7049C78.9934 59.4883 78.9967 59.2717 78.9967 59.0551L79 58.2866V22.9483C79 22.7317 78.9956 22.5161 78.9868 22.3016C78.9806 21.8284 78.9366 21.3564 78.8552 20.8896C78.6958 19.9496 78.2283 19.0811 77.5193 18.4076C76.8102 17.7341 75.8955 17.2897 74.9052 17.1377C74.4133 17.0604 73.9159 17.0187 73.4173 17.0127C72.9204 16.9999 72.4233 16.9968 71.9262 17.0034H7.07708ZM7.07708 18.6028H72.7195C72.9346 18.6028 73.1507 18.6059 73.368 18.6122C73.7465 18.6247 74.1909 18.6434 74.6023 18.7122C74.9611 18.7746 75.2607 18.8684 75.547 19.0058C76.124 19.2845 76.5931 19.7297 76.8868 20.2773C77.0374 20.5605 77.1418 20.8639 77.1962 21.177C77.2686 21.5612 77.2883 21.983 77.2982 22.3453C77.3048 22.5474 77.3081 22.7525 77.3081 22.9608V59.0488C77.3081 59.2509 77.3048 59.455 77.2982 59.6611C77.2883 60.0204 77.2686 60.4421 77.1929 60.8326C77.1209 61.2921 76.9338 61.7284 76.6475 62.1051C76.3611 62.4818 75.9838 62.7878 75.547 62.9975C75.2507 63.1399 74.9333 63.239 74.6056 63.2912C74.199 63.3487 73.7889 63.3821 73.3778 63.3912L72.7195 63.4005H6.27392C6.05447 63.4005 5.83942 63.3974 5.62875 63.3912C5.21549 63.3824 4.80322 63.349 4.39438 63.2912C4.03558 63.2287 3.73604 63.135 3.44638 62.9975C2.86642 62.7238 2.39699 62.2772 2.10996 61.7261C1.95927 61.4428 1.85494 61.1395 1.80054 60.8264C1.73479 60.441 1.69958 60.0515 1.69521 59.6611L1.68863 59.0457V22.9576L1.69521 22.3422C1.70837 21.9861 1.72813 21.5675 1.80054 21.1707C1.86638 20.8333 1.96512 20.5491 2.10996 20.2741C2.40418 19.7277 2.87316 19.2837 3.44967 19.0058C3.74709 18.8631 4.06562 18.7641 4.39438 18.7122C4.80583 18.6434 5.25021 18.6216 5.62875 18.6122L6.27392 18.6028H7.07708ZM22.5808 30.1615C21.5933 30.2115 20.382 30.7832 19.6842 31.586C19.0555 32.2733 18.4992 33.3979 18.644 34.4538C19.7566 34.5476 20.8659 33.9259 21.567 33.148C22.2418 32.342 22.7026 31.2643 22.5808 30.1646V30.1615ZM29.8455 31.4736V48.6335H32.65V42.7698H36.5342C40.0826 42.7698 42.5744 40.4612 42.5744 37.1092C42.5744 33.7666 40.132 31.4705 36.6231 31.4705L29.8455 31.4736ZM32.65 33.7197H35.8825C38.315 33.7197 39.7041 34.9568 39.7041 37.1217C39.7041 39.2835 38.315 40.5331 35.8726 40.5331H32.65V33.7197ZM22.2681 34.6569C20.7869 34.6881 19.536 35.5316 18.8119 35.5316C18.0383 35.5316 16.8599 34.7069 15.5828 34.7287C14.7523 34.7497 13.9419 34.976 13.2318 35.3852C12.5217 35.7945 11.9365 36.3726 11.534 37.0624C9.79929 39.8989 11.0765 44.1069 12.7651 46.4186C13.5847 47.562 14.5722 48.821 15.8724 48.7741C17.1002 48.7304 17.5841 48.0181 19.0752 48.0181C20.5696 48.0181 21.0041 48.7741 22.301 48.7522C23.6506 48.7304 24.4966 47.6089 25.3129 46.4624C26.2543 45.1597 26.6395 43.9007 26.6625 43.8351C26.6395 43.8101 24.0621 42.8729 24.039 40.0582C24.0127 37.7028 26.0634 36.5813 26.1589 36.5125C25.0002 34.8881 23.1964 34.7069 22.571 34.66L22.2681 34.6569ZM49.273 35.8971C46.0142 35.8971 43.9865 37.5622 43.8351 39.8208H46.3928C46.6298 38.7024 47.6074 37.9902 49.1742 37.9902C50.8266 37.9902 51.8174 38.8211 51.8174 40.2113V41.1766L48.2065 41.3766C45.0761 41.5452 43.3085 42.8886 43.3085 45.0753C43.3085 47.3246 45.1123 48.846 47.693 48.846C49.4244 48.846 51.09 47.9681 51.8536 46.5748H51.9162V48.6335H54.51V40.0114C54.51 37.5028 52.4692 35.8971 49.273 35.8971ZM55.6588 36.122L60.4185 48.646C60.4185 48.6554 60.1783 49.3958 60.1783 49.4176C59.7668 50.6985 59.092 51.2014 57.8379 51.2014C57.6107 51.2014 57.1598 51.2014 56.959 51.1546V53.2351C57.1565 53.2695 57.8379 53.2945 58.0617 53.2945C60.7938 53.2945 62.0973 52.3198 63.223 49.2864L68.1605 36.122H65.3034L61.9722 46.3031H61.9228L58.5884 36.1189L55.6588 36.122ZM51.8174 42.9604V43.9476C51.8174 45.5752 50.3362 46.8123 48.4468 46.8123C46.9918 46.8123 46.0405 46.1 46.0405 45.0035C46.0405 43.9351 46.9556 43.2541 48.5718 43.151L51.8174 42.9604Z" fill="black"/>
</svg>
