<svg width="52" height="52" viewBox="0 0 52 52" fill="none" xmlns="http://www.w3.org/2000/svg">
<g clip-path="url(#clip0_54_507)">
<path d="M8.58628 15.6759C6.99436 15.6753 5.43365 16.1175 4.07872 16.9532C2.72378 17.7889 1.62806 18.9851 0.914111 20.4079C0.31241 21.6041 -0.000976562 22.9245 -0.000976562 24.2635C-0.000976562 25.6025 0.31241 26.9229 0.914111 28.1191C1.62806 29.5419 2.72378 30.7381 4.07872 31.5738C5.43365 32.4095 6.99436 32.8517 8.58628 32.8511C10.9046 32.8511 12.8546 32.0884 14.2781 30.7776C15.8988 29.2826 16.8348 27.0726 16.8348 24.4596C16.8315 23.8743 16.7808 23.2903 16.6831 22.7133H8.58844V26.0196H13.2251C13.1301 26.5476 12.9296 27.0509 12.6355 27.4995C12.3414 27.9481 11.9597 28.3328 11.5134 28.6304C10.7421 29.1526 9.74978 29.4516 8.58844 29.4516C6.34811 29.4516 4.44795 27.9414 3.76761 25.9069C3.4091 24.8406 3.4091 23.6864 3.76761 22.6201C4.44795 20.5834 6.34811 19.0754 8.58844 19.0754C9.8127 19.0549 10.9958 19.5173 11.8818 20.3624L14.3344 17.9141C12.7814 16.4519 10.7192 15.6495 8.58628 15.6759ZM22.6718 16.8676V31.8176H24.5914V25.7618H27.7656C29.0714 25.7618 30.1706 25.3371 31.0633 24.4878C31.5078 24.0895 31.8609 23.5998 32.0983 23.0523C32.3358 22.5048 32.4521 21.9124 32.4391 21.3158C32.4481 20.7222 32.33 20.1336 32.0927 19.5895C31.8554 19.0454 31.5044 18.5583 31.0633 18.1611C30.6261 17.7385 30.1097 17.4065 29.5437 17.1842C28.9778 16.9618 28.3735 16.8535 27.7656 16.8654L22.6718 16.8676ZM27.9303 18.7093C28.2652 18.7156 28.5955 18.7888 28.9017 18.9246C29.2079 19.0604 29.4839 19.2561 29.7134 19.5001C29.9576 19.7375 30.1516 20.0215 30.2841 20.3352C30.4166 20.6489 30.4849 20.986 30.4849 21.3266C30.4849 21.6671 30.4166 22.0042 30.2841 22.318C30.1516 22.6317 29.9576 22.9156 29.7134 23.1531C29.4681 23.4073 29.1723 23.6075 28.8451 23.7407C28.5179 23.8739 28.1664 23.9372 27.8133 23.9266H24.5914V18.7093H27.9303ZM36.8656 21.2551C35.0427 21.2551 33.6654 21.9231 32.7338 23.2593L34.4259 24.3231C35.0499 23.4189 35.8986 22.9668 36.9718 22.9668C37.6562 22.9573 38.3189 23.2073 38.8264 23.6666C39.0777 23.8725 39.2794 24.1323 39.4166 24.4267C39.5539 24.7211 39.6232 25.0426 39.6194 25.3674V25.8051C38.8828 25.3862 37.9439 25.1775 36.8028 25.1789C35.4652 25.1789 34.3971 25.4924 33.5983 26.1193C32.7966 26.7433 32.3965 27.5847 32.3979 28.6434C32.3899 29.1192 32.4877 29.5907 32.6845 30.0239C32.8812 30.4571 33.1719 30.8411 33.5354 31.1481C34.2938 31.8169 35.2363 32.1513 36.3629 32.1513C37.6846 32.1513 38.7427 31.5663 39.5371 30.3963H39.6194V31.8154H41.4568V25.5126C41.4568 24.1909 41.0466 23.1509 40.2261 22.3926C39.4028 21.6343 38.2826 21.2551 36.8656 21.2551ZM41.7688 21.5888L45.9851 31.1698L43.6061 36.3264H45.5886L51.9998 21.5866H49.9089L46.9449 28.9338H46.9016L43.8553 21.5888H41.7688ZM37.1191 26.7194C38.1894 26.7194 39.0243 26.9578 39.6238 27.4344C39.6238 28.2404 39.306 28.9432 38.6704 29.5426C38.3877 29.8276 38.0511 30.0537 37.6803 30.2077C37.3095 30.3617 36.9118 30.4405 36.5103 30.4396C35.9688 30.4501 35.4404 30.2724 35.0153 29.9369C34.8177 29.7935 34.657 29.6052 34.5467 29.3874C34.4363 29.1696 34.3793 28.9287 34.3804 28.6846C34.3804 28.1314 34.6426 27.6641 35.167 27.2828C35.687 26.9072 36.3391 26.7194 37.1191 26.7194Z" fill="black"/>
</g>
<rect x="0.5" y="0.5" width="51" height="51" rx="9.5" stroke="black"/>
<defs>
<clipPath id="clip0_54_507">
<rect width="52" height="52" rx="10" fill="white"/>
</clipPath>
</defs>
</svg>
