<svg width="52" height="52" viewBox="0 0 52 52" fill="none" xmlns="http://www.w3.org/2000/svg">
<path d="M26 4.875C14.352 4.875 4.875 14.352 4.875 26C4.875 37.648 14.352 47.125 26 47.125C37.648 47.125 47.125 37.648 47.125 26C47.125 14.352 37.648 4.875 26 4.875ZM26 8.125C35.8914 8.125 43.875 16.1086 43.875 26C43.875 35.8914 35.8914 43.875 26 43.875C16.1086 43.875 8.125 35.8914 8.125 26C8.125 16.1086 16.1086 8.125 26 8.125ZM24.375 16.25V24.375H16.25V27.625H24.375V35.75H27.625V27.625H35.75V24.375H27.625V16.25H24.375Z" fill="black"/>
</svg>
