<svg width="46" height="48" viewBox="0 0 46 48" fill="none" xmlns="http://www.w3.org/2000/svg">
<path d="M33.5418 13H33.561M13.4168 4H32.5835C37.8762 4 42.1668 8.47715 42.1668 14V34C42.1668 39.5228 37.8762 44 32.5835 44H13.4168C8.1241 44 3.8335 39.5228 3.8335 34V14C3.8335 8.47715 8.1241 4 13.4168 4ZM30.6668 22.74C30.9034 24.4045 30.6309 26.1044 29.8882 27.598C29.1455 29.0916 27.9704 30.3028 26.5299 31.0593C25.0895 31.8159 23.4572 32.0792 21.8651 31.8119C20.273 31.5445 18.8022 30.7602 17.6619 29.5703C16.5217 28.3805 15.77 26.8457 15.5138 25.1844C15.2576 23.5231 15.51 21.8198 16.235 20.3167C16.96 18.8137 18.1207 17.5875 19.5521 16.8125C20.9834 16.0375 22.6125 15.7532 24.2077 16C25.8348 16.2518 27.3411 17.0429 28.5042 18.2566C29.6674 19.4703 30.4256 21.0422 30.6668 22.74Z" stroke="#1E1E1E" stroke-width="4" stroke-linecap="round" stroke-linejoin="round"/>
</svg>
