<svg width="67" height="67" viewBox="0 0 67 67" fill="none" xmlns="http://www.w3.org/2000/svg">
<path d="M5.5835 12.5625H24.4468C25.547 12.5624 26.6364 12.779 27.6529 13.2001C28.6693 13.6211 29.5929 14.2383 30.3707 15.0164L39.0835 23.7292M13.9585 37.6875H5.5835M23.7293 20.9375L29.3127 26.5208C29.6793 26.8874 29.9701 27.3227 30.1685 27.8017C30.3669 28.2807 30.469 28.794 30.469 29.3125C30.469 29.831 30.3669 30.3443 30.1685 30.8233C29.9701 31.3023 29.6793 31.7376 29.3127 32.1042C28.9461 32.4708 28.5108 32.7616 28.0318 32.96C27.5528 33.1584 27.0395 33.2605 26.521 33.2605C26.0025 33.2605 25.4892 33.1584 25.0102 32.96C24.5312 32.7616 24.0959 32.4708 23.7293 32.1042L19.5418 27.9167C17.141 30.3175 13.336 30.5883 10.6169 28.5504L9.771 27.9167" stroke="black" stroke-width="1.5" stroke-linecap="round" stroke-linejoin="round"/>
<path d="M13.9585 30.7084V43.2709C13.9585 48.536 13.9585 51.1657 15.5944 52.8017C17.2303 54.4376 19.8601 54.4376 25.1252 54.4376H50.2502C55.5152 54.4376 58.145 54.4376 59.7809 52.8017C61.4168 51.1657 61.4168 48.536 61.4168 43.2709V34.8959C61.4168 29.6308 61.4168 27.0011 59.7809 25.3652C58.145 23.7292 55.5152 23.7292 50.2502 23.7292H26.521" stroke="black" stroke-width="1.5" stroke-linecap="round" stroke-linejoin="round"/>
<path d="M42.5731 39.0834C42.5731 40.3791 42.0584 41.6217 41.1422 42.5379C40.226 43.4541 38.9834 43.9688 37.6877 43.9688C36.392 43.9688 35.1493 43.4541 34.2332 42.5379C33.317 41.6217 32.8022 40.3791 32.8022 39.0834C32.8022 37.7877 33.317 36.5451 34.2332 35.6289C35.1493 34.7127 36.392 34.198 37.6877 34.198C38.9834 34.198 40.226 34.7127 41.1422 35.6289C42.0584 36.5451 42.5731 37.7877 42.5731 39.0834Z" stroke="black" stroke-width="1.5" stroke-linecap="round" stroke-linejoin="round"/>
</svg>
