<svg width="71" height="71" viewBox="0 0 71 71" fill="none" xmlns="http://www.w3.org/2000/svg">
<path d="M19.5842 31.9204C23.8442 40.2925 30.7075 47.1262 39.0796 51.4158L45.5879 44.9075C46.3867 44.1087 47.57 43.8425 48.6054 44.1975C51.9188 45.2921 55.4983 45.8838 59.1667 45.8838C60.7937 45.8838 62.125 47.215 62.125 48.8421V59.1667C62.125 60.7937 60.7937 62.125 59.1667 62.125C31.3879 62.125 8.875 39.6121 8.875 11.8333C8.875 10.2062 10.2062 8.875 11.8333 8.875H22.1875C23.8146 8.875 25.1458 10.2062 25.1458 11.8333C25.1458 15.5312 25.7375 19.0813 26.8321 22.3946C27.1575 23.43 26.9208 24.5837 26.0925 25.4121L19.5842 31.9204Z" fill="black"/>
</svg>
