<svg width="59" height="59" viewBox="0 0 59 59" fill="none" xmlns="http://www.w3.org/2000/svg">
<path d="M44.2498 11.0132C40.3378 7.10127 35.0321 4.90356 29.4998 4.90356C23.9675 4.90356 18.6617 7.10127 14.7498 11.0132C10.8378 14.9252 8.64014 20.2309 8.64014 25.7632C8.64014 31.2955 10.8378 36.6013 14.7498 40.5132L27.7052 53.4932C27.9337 53.7236 28.2056 53.9065 28.5052 54.0313C28.8048 54.1561 29.1261 54.2204 29.4506 54.2204C29.7751 54.2204 30.0965 54.1561 30.396 54.0313C30.6956 53.9065 30.9675 53.7236 31.196 53.4932L44.2498 40.3903C48.1454 36.4946 50.3339 31.211 50.3339 25.7018C50.3339 20.1925 48.1454 14.9089 44.2498 11.0132ZM40.7344 36.8749L29.4998 48.1586L18.2652 36.8749C16.0457 34.6533 14.5346 31.8236 13.923 28.7434C13.3114 25.6632 13.6268 22.4709 14.8292 19.5699C16.0316 16.6689 18.0671 14.1895 20.6784 12.4451C23.2897 10.7008 26.3595 9.76974 29.4998 9.76974C32.6401 9.76974 35.7099 10.7008 38.3212 12.4451C40.9325 14.1895 42.968 16.6689 44.1704 19.5699C45.3728 22.4709 45.6881 25.6632 45.0765 28.7434C44.4649 31.8236 42.9539 34.6533 40.7344 36.8749ZM22.1248 18.2161C20.1402 20.2068 19.0258 22.9031 19.0258 25.714C19.0258 28.525 20.1402 31.2213 22.1248 33.212C23.5992 34.6889 25.4769 35.6975 27.5224 36.1113C29.5679 36.5251 31.69 36.3256 33.6226 35.5379C35.5551 34.7502 37.212 33.4093 38.3854 31.6835C39.5587 29.9577 40.1963 27.9238 40.2181 25.837C40.2292 24.4436 39.9608 23.0621 39.4288 21.7743C38.8967 20.4864 38.1119 19.3183 37.1206 18.339C36.1463 17.3424 34.9845 16.5482 33.7021 16.0023C32.4197 15.4564 31.042 15.1695 29.6483 15.158C28.2545 15.1466 26.8723 15.4109 25.5811 15.9358C24.2899 16.4606 23.1153 17.2356 22.1248 18.2161ZM33.6544 29.7211C32.7228 30.667 31.4916 31.2598 30.1712 31.3983C28.8509 31.5369 27.5234 31.2125 26.4158 30.4806C25.3082 29.7487 24.4892 28.6548 24.0988 27.3859C23.7085 26.117 23.771 24.7519 24.2757 23.5241C24.7804 22.2962 25.696 21.2817 26.8659 20.6541C28.0358 20.0266 29.3873 19.8249 30.6895 20.0835C31.9916 20.3422 33.1635 21.0451 34.0047 22.0721C34.8459 23.0991 35.3043 24.3865 35.3015 25.714C35.2657 27.2315 34.6291 28.6727 33.5315 29.7211H33.6544Z" fill="black"/>
</svg>
