<svg width="67" height="67" viewBox="0 0 67 67" fill="none" xmlns="http://www.w3.org/2000/svg">
<path d="M60.7188 59.2693H6.28125C2.80563 59.2693 0 56.4637 0 52.988V15.3005C0 11.8249 2.80563 9.01929 6.28125 9.01929H60.7188C64.1944 9.01929 67 11.8249 67 15.3005V52.988C67 56.4637 64.1944 59.2693 60.7188 59.2693ZM6.28125 13.2068C5.10875 13.2068 4.1875 14.128 4.1875 15.3005V52.988C4.1875 54.1605 5.10875 55.0818 6.28125 55.0818H60.7188C61.8913 55.0818 62.8125 54.1605 62.8125 52.988V15.3005C62.8125 14.128 61.8913 13.2068 60.7188 13.2068H6.28125Z" fill="black"/>
<path d="M55.2331 26.9256H52.0925C51.1294 26.9256 50.4175 27.2187 49.9569 28.1818L43.9269 41.9168H48.1981C48.1981 41.9168 48.9519 40.0743 49.0775 39.6556H54.3119C54.4794 40.1581 54.8144 41.8749 54.8144 41.8749H58.625L55.2331 26.9674V26.9256ZM50.25 36.5568C50.6269 35.6774 51.8831 32.3693 51.8831 32.3693C51.8831 32.4531 52.26 31.4899 52.3856 30.9874L52.6787 32.3274L53.6419 36.6824H50.25V36.5987V36.5568ZM44.22 36.9756C44.22 40.0743 41.4144 42.1262 37.1012 42.1262C35.2587 42.1262 33.5 41.7493 32.5369 41.3306L33.1231 37.9387L33.6256 38.1481C34.9656 38.7343 35.845 38.9437 37.4362 38.9437C38.6087 38.9437 39.865 38.4831 39.865 37.4781C39.865 36.8081 39.3625 36.3893 37.7294 35.6356C36.18 34.8818 34.1281 33.7093 34.1281 31.6156C34.1281 28.6843 36.9756 26.6743 41.0375 26.6743C42.5869 26.6743 43.885 26.9674 44.7225 27.3443L44.1362 30.5687L43.8431 30.2756C43.0894 29.9824 42.1681 29.6893 40.7444 29.6893C39.195 29.7731 38.4831 30.4431 38.4831 31.0293C38.4831 31.6993 39.3625 32.2018 40.7444 32.8718C43.0894 33.9606 44.1781 35.2168 44.1781 36.9756H44.22ZM8.375 27.0512L8.45875 26.7581H14.7819C15.6612 26.7581 16.3313 27.0512 16.5406 28.0143L17.9225 34.6306C16.5406 31.1131 13.2744 28.2237 8.375 27.0512Z" fill="black"/>
<path d="M26.7999 26.9255L20.393 41.833H16.038L12.353 29.3543C14.9912 31.0293 17.2105 33.7093 18.0062 35.5099L18.4668 37.0593L22.4449 26.8418H26.7999V26.9255ZM28.5168 26.8418H32.5368L29.9824 41.833H25.9624L28.5168 26.8418Z" fill="black"/>
</svg>
