<svg width="46" height="63" viewBox="0 0 46 63" fill="none" xmlns="http://www.w3.org/2000/svg">
<g clip-path="url(#clip0_54_515)">
<path d="M43.2016 16.8525C42.9739 15.6067 42.5103 14.4653 41.8574 13.5434C41.2045 12.6216 40.3856 11.9521 39.4833 11.6025C36.1866 10.5 23 10.5 23 10.5C23 10.5 9.81329 10.5 6.51662 11.7075C5.61435 12.0571 4.79541 12.7266 4.14254 13.6484C3.48966 14.5703 3.02597 15.7117 2.79829 16.9575C2.19495 21.5396 1.89983 26.1878 1.91662 30.8438C1.89512 35.5347 2.19026 40.2184 2.79829 44.835C3.04929 46.0421 3.52338 47.1401 4.17473 48.023C4.82609 48.9059 5.6327 49.5438 6.51662 49.875C9.81329 51.0825 23 51.0825 23 51.0825C23 51.0825 36.1866 51.0825 39.4833 49.875C40.3856 49.5254 41.2045 48.8559 41.8574 47.9341C42.5103 47.0122 42.9739 45.8708 43.2016 44.625C43.8003 40.0774 44.0954 35.4646 44.0833 30.8438C44.1048 26.1528 43.8097 21.4691 43.2016 16.8525Z" stroke="#1E1E1E" stroke-width="4" stroke-linecap="round" stroke-linejoin="round"/>
<path d="M18.6875 39.4275L29.7083 30.8438L18.6875 22.26V39.4275Z" stroke="#1E1E1E" stroke-width="4" stroke-linecap="round" stroke-linejoin="round"/>
</g>
<defs>
<clipPath id="clip0_54_515">
<rect width="46" height="63" fill="white"/>
</clipPath>
</defs>
</svg>
