<svg width="35" height="34" viewBox="0 0 35 34" fill="none" xmlns="http://www.w3.org/2000/svg">
<path d="M16.7708 30.8125C8.53121 30.8125 1.82288 24.2958 1.82288 16.2917C1.82288 8.28749 8.53121 1.77083 16.7708 1.77083C25.0104 1.77083 31.7187 8.28749 31.7187 16.2917C31.7187 24.2958 25.0104 30.8125 16.7708 30.8125ZM16.7708 3.89583C9.72704 3.89583 4.01038 9.46333 4.01038 16.2917C4.01038 23.12 9.72704 28.6875 16.7708 28.6875C23.8145 28.6875 29.5312 23.12 29.5312 16.2917C29.5312 9.46333 23.8145 3.89583 16.7708 3.89583Z" fill="#292D32"/>
<path d="M32.0833 32.2292C31.8062 32.2292 31.5291 32.13 31.3104 31.9175L28.3937 29.0842C27.9708 28.6733 27.9708 27.9933 28.3937 27.5825C28.8166 27.1717 29.5166 27.1717 29.9396 27.5825L32.8562 30.4158C33.2791 30.8267 33.2791 31.5067 32.8562 31.9175C32.6375 32.13 32.3604 32.2292 32.0833 32.2292Z" fill="#292D32"/>
</svg>
