<svg width="31" height="31" viewBox="0 0 31 31" fill="none" xmlns="http://www.w3.org/2000/svg">
<g clip-path="url(#clip0_233_343)">
<path d="M11.1944 26.1053C10.6835 26.1053 10.184 26.2488 9.75922 26.5177C9.33439 26.7866 9.00328 27.1689 8.80776 27.6161C8.61223 28.0633 8.56107 28.5553 8.66075 29.0301C8.76043 29.5048 9.00647 29.9409 9.36775 30.2832C9.72904 30.6255 10.1893 30.8585 10.6905 30.953C11.1916 31.0474 11.711 30.9989 12.183 30.8137C12.6551 30.6285 13.0585 30.3148 13.3424 29.9123C13.6263 29.5098 13.7778 29.0367 13.7778 28.5526C13.7778 27.9035 13.5056 27.2811 13.0211 26.8221C12.5367 26.3631 11.8796 26.1053 11.1944 26.1053ZM29.2778 21.2105H8.61111C8.15435 21.2105 7.7163 21.0386 7.39332 20.7326C7.07034 20.4267 6.88889 20.0117 6.88889 19.5789C6.88889 19.1462 7.07034 18.7312 7.39332 18.4252C7.7163 18.1193 8.15435 17.9474 8.61111 17.9474H23.2345C24.3567 17.9448 25.4478 17.5974 26.3437 16.9572C27.2397 16.317 27.8922 15.4186 28.2031 14.3971L30.9328 5.34179C31.0058 5.09911 31.0184 4.84371 30.9696 4.59565C30.9207 4.34759 30.8118 4.11364 30.6514 3.91219C30.491 3.71074 30.2835 3.54729 30.0452 3.43467C29.8068 3.32205 29.5441 3.26334 29.2778 3.26316H8.16333C7.80586 2.31237 7.14785 1.48901 6.27884 0.905124C5.40983 0.321243 4.37203 0.00519862 3.30667 0H1.72222C1.26546 0 0.827406 0.171898 0.504427 0.477878C0.181448 0.783859 0 1.19886 0 1.63158C0 2.0643 0.181448 2.4793 0.504427 2.78528C0.827406 3.09126 1.26546 3.26316 1.72222 3.26316H3.30839C3.68237 3.26429 4.04591 3.38015 4.34458 3.59339C4.64325 3.80663 4.86097 4.10578 4.96517 4.44605L5.23211 5.33526V5.34342L8.05828 14.7119C6.74279 14.8452 5.53137 15.4514 4.67368 16.4057C3.81599 17.36 3.37739 18.5896 3.44827 19.8412C3.51915 21.0927 4.09411 22.2709 5.05465 23.1327C6.01519 23.9946 7.28812 24.4746 8.61111 24.4737H29.2778C29.7345 24.4737 30.1726 24.3018 30.4956 23.9958C30.8186 23.6898 31 23.2748 31 22.8421C31 22.4094 30.8186 21.9944 30.4956 21.6884C30.1726 21.3824 29.7345 21.2105 29.2778 21.2105ZM26.9941 6.52632L24.893 13.4997C24.789 13.8405 24.5712 14.1402 24.2721 14.3538C23.9731 14.5674 23.609 14.6833 23.2345 14.6842H11.6319L11.1927 13.2288L9.17256 6.52632H26.9941ZM24.9722 26.1053C24.4613 26.1053 23.9618 26.2488 23.537 26.5177C23.1122 26.7866 22.7811 27.1689 22.5855 27.6161C22.39 28.0633 22.3388 28.5553 22.4385 29.0301C22.5382 29.5048 22.7842 29.9409 23.1455 30.2832C23.5068 30.6255 23.9671 30.8585 24.4682 30.953C24.9694 31.0474 25.4888 30.9989 25.9608 30.8137C26.4329 30.6285 26.8363 30.3148 27.1202 29.9123C27.404 29.5098 27.5556 29.0367 27.5556 28.5526C27.5556 27.9035 27.2834 27.2811 26.7989 26.8221C26.3144 26.3631 25.6574 26.1053 24.9722 26.1053Z" fill="black"/>
</g>
<defs>
<clipPath id="clip0_233_343">
<rect width="31" height="31" fill="white"/>
</clipPath>
</defs>
</svg>
