<svg width="25" height="30" viewBox="0 0 25 30" fill="none" xmlns="http://www.w3.org/2000/svg">
<path d="M12.5 0C14.2659 0 15.9922 0.439867 17.4604 1.26398C18.9287 2.08809 20.0731 3.25943 20.7489 4.62987C21.4247 6.00032 21.6015 7.50832 21.257 8.96318C20.9125 10.418 20.0621 11.7544 18.8135 12.8033C17.5648 13.8522 15.9739 14.5665 14.2419 14.8559C12.5099 15.1453 10.7147 14.9968 9.08318 14.4291C7.4517 13.8614 6.05725 12.9001 5.07616 11.6668C4.09508 10.4334 3.57143 8.98336 3.57143 7.5L3.58036 7.1745C3.68021 5.24363 4.66358 3.41967 6.3254 2.08299C7.98721 0.746312 10.1992 0.000111664 12.5 0ZM16.0714 18C18.4394 18 20.7104 18.7902 22.3849 20.1967C24.0593 21.6032 25 23.5109 25 25.5V27C25 27.7956 24.6237 28.5587 23.954 29.1213C23.2842 29.6839 22.3758 30 21.4286 30H3.57143C2.62423 30 1.71582 29.6839 1.04605 29.1213C0.376274 28.5587 0 27.7956 0 27V25.5C0 23.5109 0.940686 21.6032 2.61512 20.1967C4.28955 18.7902 6.56057 18 8.92857 18H16.0714Z" fill="black"/>
</svg>
