<svg width="40" height="40" viewBox="0 0 40 40" fill="none" xmlns="http://www.w3.org/2000/svg">
<path d="M23.3336 20V33.1333C23.4002 33.6333 23.2336 34.1667 22.8502 34.5167C22.696 34.6712 22.5129 34.7938 22.3113 34.8774C22.1096 34.961 21.8935 35.0041 21.6752 35.0041C21.4569 35.0041 21.2408 34.961 21.0392 34.8774C20.8376 34.7938 20.6544 34.6712 20.5002 34.5167L17.1502 31.1667C16.9685 30.9889 16.8304 30.7716 16.7466 30.5316C16.6627 30.2916 16.6355 30.0356 16.6669 29.7833V20H16.6169L7.01689 7.7C6.74623 7.35255 6.62411 6.9121 6.6772 6.47488C6.73029 6.03767 6.95428 5.63924 7.30022 5.36667C7.61689 5.13333 7.96689 5 8.33355 5H31.6669C32.0336 5 32.3836 5.13333 32.7002 5.36667C33.0462 5.63924 33.2701 6.03767 33.3232 6.47488C33.3763 6.9121 33.2542 7.35255 32.9836 7.7L23.3836 20H23.3336Z" fill="black"/>
</svg>
